<?xml version="1.0" encoding="utf-8"?>
<!-- Generator: Adobe Illustrator 23.0.1, SVG Export Plug-In . SVG Version: 6.00 Build 0)  -->
<svg version="1.1" id="Слой_1" xmlns="http://www.w3.org/2000/svg" xmlns:xlink="http://www.w3.org/1999/xlink" x="0px" y="0px"
	 viewBox="0 0 728.5 728.5" style="enable-background:new 0 0 728.5 728.5;" xml:space="preserve">
<style type="text/css">
	.st0{fill:#2B2B2B;stroke:#1C1C1C;stroke-width:1.3;stroke-miterlimit:10;}
	.st1{fill:#3A3A3A;stroke:#2B2B2B;stroke-width:1.3;stroke-miterlimit:10;}
	.st2{fill:#FFFFFF;}
</style>
<g>
	<path class="st0" d="M296,288.5L296,288.5c-18.5,0-33.6-15-33.6-33.6v0c0-18.5,15-33.6,33.6-33.6h0c18.5,0,33.6,15,33.6,33.6v0
		C329.6,273.4,314.6,288.5,296,288.5z"/>
	<path class="st0" d="M357.2,326.9v88.3c0,6.7-5.4,12.1-12.1,12.1h0c-6.7,0-12.1-5.4-12.1-12.1v-52.5v164c0,7.4-6,13.4-13.4,13.4
		h-1.8c-7.3,0-13.2-5.8-13.4-13l-2.4-98.2c0-1.8-1.5-3.2-3.3-3.2h-4.5c-1.8,0-3.3,1.5-3.3,3.3l-0.4,97.9c0,7.4-6,13.3-13.4,13.3H272
		c-7.4,0-13.4-6.1-13.4-13.5l1-101.5v-62v50.8c0,6.7-5.4,12.1-12.1,12.1H247c-6.7,0-12.2-5.5-12.1-12.2l0.4-87
		c0.1-15.8,12.9-28.6,28.7-28.6h64.5C344.4,298.2,357.2,311.1,357.2,326.9z"/>
</g>
<g>
	<path class="st0" d="M442.8,290.5L442.8,290.5c-18.5,0-33.6-15-33.6-33.6v0c0-18.5,15-33.6,33.6-33.6h0c18.5,0,33.6,15,33.6,33.6v0
		C476.4,275.4,461.3,290.5,442.8,290.5z"/>
	<path class="st0" d="M503.9,326.9v88.3c0,6.7-5.4,12.1-12.1,12.1l0,0c-6.7,0-12.1-5.4-12.1-12.1v-52.5v164c0,7.4-6,13.4-13.4,13.4
		h-1.8c-7.3,0-13.2-5.8-13.4-13l-2.4-98.2c0-1.8-1.5-3.2-3.3-3.2H441c-1.8,0-3.3,1.5-3.3,3.3l-0.4,97.9c0,7.4-6,13.3-13.4,13.3h-5.1
		c-7.4,0-13.4-6.1-13.4-13.5l1-101.5v-62v50.8c0,6.7-5.4,12.1-12.1,12.1h-0.5c-6.7,0-12.2-5.5-12.1-12.2l0.4-87
		c0.1-15.8,12.9-28.6,28.7-28.6h64.5C491.1,298.2,503.9,311.1,503.9,326.9z"/>
</g>
<g>
	<path class="st1" d="M369.3,257.1L369.3,257.1c-20.9,0-37.8-16.9-37.8-37.8v0c0-20.9,16.9-37.8,37.8-37.8h0
		c20.9,0,37.8,16.9,37.8,37.8v0C407.1,240.1,390.2,257.1,369.3,257.1z"/>
	<path class="st1" d="M438.2,300.4v99.5c0,7.5-6.1,13.7-13.7,13.7h0c-7.5,0-13.7-6.1-13.7-13.7v-59.1v184.7
		c0,8.3-6.7,15.1-15.1,15.1h-2c-8.2,0-14.9-6.5-15.1-14.7L376,415.2c0-2-1.7-3.6-3.7-3.6h-5c-2,0-3.7,1.6-3.7,3.7l-0.5,110.3
		c0,8.3-6.8,15-15.1,15h-5.8c-8.4,0-15.1-6.8-15.1-15.2l1.1-114.4v-69.9v57.3c0,7.5-6.1,13.6-13.6,13.6H314
		c-7.6,0-13.7-6.2-13.7-13.7l0.4-98c0.1-17.8,14.5-32.2,32.3-32.2h72.7C423.7,268,438.2,282.5,438.2,300.4z"/>
</g>
<g>
	<path class="st2" d="M375.5,316.2L375.5,316.2c5.5,0,8.2,6.6,4.3,10.5l-10.1,10.1v-14.8C369.7,318.7,372.3,316.2,375.5,316.2z"/>
	<path class="st2" d="M364,316.2L364,316.2c-5.5,0-8.2,6.6-4.3,10.5l10.1,10.1v-14.8C369.7,318.7,367.1,316.2,364,316.2z"/>
</g>
</svg>
