<?xml version="1.0" encoding="utf-8"?>
<!-- Generator: Adobe Illustrator 23.0.1, SVG Export Plug-In . SVG Version: 6.00 Build 0)  -->
<svg version="1.1" id="Слой_1" xmlns="http://www.w3.org/2000/svg" xmlns:xlink="http://www.w3.org/1999/xlink" x="0px" y="0px"
	 viewBox="0 0 728.5 728.5" style="enable-background:new 0 0 728.5 728.5;" xml:space="preserve">
<style type="text/css">
	.st0{fill:#FF2735;stroke:#D11325;stroke-width:2;stroke-miterlimit:10;}
	.st1{fill:#D11325;stroke:#B5001F;stroke-width:2;stroke-miterlimit:10;}
	.st2{fill:#F70D0D;stroke:#D11325;stroke-width:2;stroke-linecap:round;stroke-miterlimit:10;}
	.st3{fill:#FFFFFF;stroke:#F70D0D;stroke-width:2;stroke-miterlimit:10;}
</style>
<path class="st0" d="M218,408.4c-127.6-162,39.3-281.5,154.9-187.5l166.3,169.3c8.6,8.8,10.6,22.3,4.3,32.8
	c-5.8,9.7-16.6,14.1-31.1,14.7c9.8,27.2-9.4,48.4-40.7,38.1c0.6,15.1-6.8,27.4-19.5,33.7c-11.2,5.6-22.3,4.2-33.5-1.3L218,408.4z"/>
<path class="st1" d="M414.4,261c-16.7,19.4-47.7,38.4-78.4,57c-3.5,2.1-7.4,3.5-11.5,4c-13.1,1.7-25.1,0.3-34.8-8.2
	c-3.8-3.3-3.9-9.2-0.4-12.8l61.6-63.7c7-7.3,15-13.6,23.7-18.7C495.7,135.4,630.4,265,537,385.1C537,385.1,414.9,260.5,414.4,261z"
	/>
<path class="st1" d="M227.5,443.1l-5.2-4.7c-9.4-8.4-10.2-22.7-1.8-32.1l32.7-36.6c8.4-9.4,22.7-10.2,32.1-1.8l5.2,4.7
	c9.4,8.4,10.2,22.7,1.8,32.1l-32.7,36.6C251.2,450.6,236.9,451.4,227.5,443.1z"/>
<path class="st1" d="M268.1,480.9l-5.2-4.7c-9.4-8.4-10.2-22.7-1.8-32.1l32.7-36.6c8.4-9.4,22.7-10.2,32.1-1.8l5.2,4.7
	c9.4,8.4,10.2,22.7,1.8,32.1L300.2,479C291.8,488.4,277.4,489.2,268.1,480.9z"/>
<path class="st1" d="M308.9,518.5l-5.2-4.7c-9.4-8.4-10.2-22.7-1.8-32.1l32.7-36.6c8.4-9.4,22.7-10.2,32.1-1.8l5.2,4.7
	c9.4,8.4,10.2,22.7,1.8,32.1L341,516.7C332.6,526.1,318.3,526.9,308.9,518.5z"/>
<path class="st1" d="M350.1,555.3l-5.2-4.7c-9.4-8.4-10.2-22.7-1.8-32.1l32.7-36.6c8.4-9.4,22.7-10.2,32.1-1.8l5.2,4.7
	c9.4,8.4,10.2,22.7,1.8,32.1l-32.7,36.6C373.8,562.8,359.4,563.6,350.1,555.3z"/>
<line class="st2" x1="511.9" y1="437.2" x2="421.2" y2="354.7"/>
<line class="st2" x1="471.1" y1="475.6" x2="379.7" y2="391.6"/>
<path class="st3" d="M407,268.4"/>
<path class="st3" d="M538.9,390.6"/>
</svg>
