<?xml version="1.0" encoding="utf-8"?>
<!-- Generator: Adobe Illustrator 23.0.1, SVG Export Plug-In . SVG Version: 6.00 Build 0)  -->
<svg version="1.1" xmlns="http://www.w3.org/2000/svg" xmlns:xlink="http://www.w3.org/1999/xlink" x="0px" y="0px"
	 viewBox="0 0 728.5 728.5" style="enable-background:new 0 0 728.5 728.5;" xml:space="preserve">
<style type="text/css">
	.st0{display:none;opacity:0.53;}
	.st1{fill:#FFFFFF;}
	.st2{fill:#EAEAEA;}
	.st3{fill:#F70D0D;stroke:#000000;stroke-miterlimit:10;}
	.st4{fill:#D50D0D;}
</style>
<g id="Слой_1" class="st0">
</g>
<g id="Слой_2">
	<polygon class="st1" points="147.6,394.9 284.9,322.1 415.7,322.9 546.2,393.2 348.4,410.2 	"/>
	<path class="st2" d="M532,369.2l-1.3-0.7l-127.4-37.8c-5.4-1.7-11-2.6-16.6-2.6c-26.7,5.2-56.9,5.5-91.1,0c-6,0-11.9,1-17.6,2.9
		l-78.4,26.4l-23.3,12.4c-1.5,0.8-2.9,1.9-4,3.1l-8.9,9.6l10.2,9.5l107.7-29.8c5.7-1.9,11.6-2.9,17.6-2.9c34.3,5.5,64.4,5.2,91.1,0
		c5.6,0,11.2,0.9,16.6,2.6l121.4,32.7l14.9-13.8L532,369.2z"/>
	<path class="st3" d="M141.5,395.8l88.6-16.5c16.3-3,33.2-2.8,49.3,1.2c43.7,10.8,89.5,9.7,137-1.1c16.2-3.7,32.9-4,49.2-0.8
		l93.4,18.5c3.2,0.6,4.7,4.4,2.7,7c-14.7,19.4-79.7,53.6-127,74c-24.6,10.6-51.1,15.5-77.9,14.7c-6.1-0.2-12.1-0.3-17.9-0.3
		c-24,0-47.8-4.5-70-13.7c-46.6-19.2-112.2-53.5-130-76.1C136.7,400.3,138.2,396.4,141.5,395.8z"/>
	<path class="st4" d="M558.9,396.1l-93.4-18.5c-16.3-3.2-33-2.9-49.2,0.8c-47.5,10.8-93.3,11.9-137,1.1c-16.1-4-33-4.3-49.3-1.2
		l-88.6,16.5c-3.3,0.6-4.7,4.5-2.7,7.1c2.2,2.8,5.1,5.7,8.6,8.8l78.2-14.6c16.3-3,33.2-2.8,49.3,1.2c43.7,10.8,89.5,9.7,137-1.1
		c16.2-3.7,32.9-4,49.2-0.8l90.1,17.8c4.6-3.7,8.1-7.1,10.5-10.2C563.6,400.5,562.1,396.7,558.9,396.1z"/>
	<path class="st3" d="M136.5,399.4L267.2,257c9.1-10,23.4-13.5,36.1-9.1l40.1,14c2.8,1,5.8,1,8.6,0.1l43.6-14.1
		c12.6-4.1,26.5-0.4,35.4,9.4l133.4,142.3c0.7,0.8-0.1,2.1-1.1,1.8l-160.5-47.6c-5.4-1.7-11-2.6-16.6-2.6c-26.7,5.2-56.9,5.5-91.1,0
		c-6,0-11.9,1-17.6,2.9l-139.9,47.2C136.6,401.5,135.8,400.2,136.5,399.4z"/>
	<path class="st1" d="M430.5,289.1c-1.9,3.6-16.9-14.2-24.6-18.1c-7.6-3.9-14.8-3.8-12.9-7.4c1.9-3.6,12.5-3.1,20.2,0.9
		C420.8,268.5,432.4,285.5,430.5,289.1z"/>
</g>
</svg>
