<?xml version="1.0" encoding="utf-8"?>
<!-- Generator: Adobe Illustrator 23.0.1, SVG Export Plug-In . SVG Version: 6.00 Build 0)  -->
<svg version="1.1" xmlns="http://www.w3.org/2000/svg" xmlns:xlink="http://www.w3.org/1999/xlink" x="0px" y="0px"
	 viewBox="0 0 728.5 728.5" style="enable-background:new 0 0 728.5 728.5;" xml:space="preserve">
<style type="text/css">
	.st0{fill:#353535;stroke:#000000;stroke-miterlimit:10;}
	.st1{stroke:#000000;stroke-miterlimit:10;}
	.st2{fill:#2B2B2B;stroke:#000000;stroke-miterlimit:10;}
	.st3{fill:#FFFFFF;stroke:#000000;stroke-miterlimit:10;}
	.st4{opacity:0.49;fill:#FFFFFF;stroke:#000000;stroke-miterlimit:10;}
	.st5{fill:#FF2735;stroke:#000000;stroke-miterlimit:10;}
	.st6{fill:#B5001F;stroke:#000000;stroke-miterlimit:10;}
	.st7{fill:#D11325;stroke:#000000;stroke-miterlimit:10;}
	.st8{opacity:0.89;fill:#FFFFFF;stroke:#000000;stroke-miterlimit:10;}
</style>
<g id="Слой_1">
</g>
<g id="Слой_2">
	<g>
		<g>
			<g>
				<path class="st0" d="M299.9,320l-91,99.9c-0.1,0.1-0.3,0.1-0.4-0.1l-56.1-116.1c-0.5-0.9-0.3-2.1,0.4-2.8l83.8-94.6c0,0,0,0,0,0
					L299.9,320z"/>
				<path class="st1" d="M398.5,347.4l-91.1,95.2c-1.3,1.3-3.1,1.8-4.9,1.4l-93.6-23.8c-0.1,0-0.2-0.2-0.1-0.3l91.1-99.6
					L398.5,347.4z"/>
				<path class="st2" d="M335,236.8l63.5,110.7l-98.4-27.4c-0.1,0-0.2-0.2-0.1-0.3l-63.4-113.5c0-0.1,0-0.1,0.1-0.1l95.3,28.1
					C333.3,234.7,334.4,235.6,335,236.8z"/>
			</g>
			<g>
				<ellipse transform="matrix(0.866 -0.5 0.5 0.866 -85.7163 177.1473)" class="st3" cx="287.7" cy="248.5" rx="14.1" ry="17.7"/>
				<ellipse transform="matrix(0.866 -0.5 0.5 0.866 -104.9218 213.7671)" class="st3" cx="346.4" cy="302.7" rx="14.1" ry="17.7"/>
				
					<ellipse transform="matrix(0.8969 -0.4423 0.4423 0.8969 -141.2587 174.5249)" class="st4" cx="303.6" cy="390.2" rx="17.7" ry="14.1"/>
				
					<ellipse transform="matrix(0.9746 -0.224 0.224 0.9746 -53.8699 60.0406)" class="st3" cx="237.7" cy="267.5" rx="14.1" ry="17.7"/>
				
					<ellipse transform="matrix(0.9746 -0.224 0.224 0.9746 -63.7621 66.0258)" class="st3" cx="259.1" cy="314.1" rx="14.1" ry="17.7"/>
				
					<ellipse transform="matrix(0.9746 -0.224 0.224 0.9746 -74.7847 56.4643)" class="st3" cx="211.5" cy="357.9" rx="14.1" ry="17.7"/>
				
					<ellipse transform="matrix(0.9746 -0.224 0.224 0.9746 -64.975 49.95)" class="st3" cx="187.7" cy="311.4" rx="14.1" ry="17.7"/>
			</g>
		</g>
		<g>
			<g>
				<path class="st5" d="M458.3,450.1l-112-88.7L464,294c0.9-0.5,2.1-0.5,3,0.2l105.5,81.1c0.1,0.1,0.1,0.2,0,0.2L458.3,450.1z"/>
				<path class="st6" d="M436.9,555.3l-107.8-89.6c-0.7-0.6-1.1-1.6-0.9-2.6l18-101.5c0-0.1,0.2-0.2,0.3-0.1l111.5,88.5l-20.8,105.2
					C437.1,555.4,437,555.4,436.9,555.3z"/>
				<path class="st7" d="M548.7,480.7l-111.2,74.6c-0.2,0.1-0.4,0-0.3-0.2l21-104.8c0-0.1,0.2-0.2,0.3-0.1L572,375.7
					c0.2-0.1,0.5,0,0.4,0.3l-22.1,102.2C550.1,479.2,549.5,480.1,548.7,480.7z"/>
			</g>
			<g>
				
					<ellipse transform="matrix(0.9382 -0.3462 0.3462 0.9382 -101.2799 164.4987)" class="st3" cx="409.9" cy="365.8" rx="17.7" ry="14.1"/>
				
					<ellipse transform="matrix(0.9382 -0.3462 0.3462 0.9382 -84.8844 179.9146)" class="st3" cx="461.2" cy="327.6" rx="17.7" ry="14.1"/>
				
					<ellipse transform="matrix(0.9382 -0.3462 0.3462 0.9382 -99.2531 183.8332)" class="st3" cx="465" cy="369.8" rx="17.7" ry="14.1"/>
				
					<ellipse transform="matrix(0.9382 -0.3462 0.3462 0.9382 -113.5356 183.6198)" class="st3" cx="457.3" cy="409.7" rx="17.7" ry="14.1"/>
				
					<ellipse transform="matrix(0.9382 -0.3462 0.3462 0.9382 -97.6548 203.9457)" class="st3" cx="522.1" cy="375.4" rx="17.7" ry="14.1"/>
				
					<ellipse transform="matrix(0.6035 -0.7974 0.7974 0.6035 -174.6143 570.6622)" class="st3" cx="486.5" cy="460.9" rx="18.7" ry="11.6"/>
				
					<ellipse transform="matrix(0.6035 -0.7974 0.7974 0.6035 -125.2002 600.9916)" class="st3" cx="541.7" cy="426.4" rx="18.7" ry="12"/>
				
					<ellipse transform="matrix(0.6035 -0.7974 0.7974 0.6035 -212.4279 582.5039)" class="st3" cx="479.5" cy="504.8" rx="15.7" ry="9.7"/>
				
					<ellipse transform="matrix(0.9586 -0.2847 0.2847 0.9586 -111.6508 138.1159)" class="st8" cx="419.2" cy="453.1" rx="12" ry="17.7"/>
				
					<ellipse transform="matrix(0.9586 -0.2847 0.2847 0.9586 -122.07 137.4893)" class="st8" cx="411.9" cy="488.6" rx="9.8" ry="14"/>
				
					<ellipse transform="matrix(0.8969 -0.4423 0.4423 0.8969 -185.8514 233.0105)" class="st8" cx="406.8" cy="515.1" rx="7.5" ry="10.8"/>
				<path class="st3" d="M357.1,396.8"/>
				<path class="st3" d="M357.1,396.8"/>
				
					<ellipse transform="matrix(0.6035 -0.7974 0.7974 0.6035 -164.1508 613.3505)" class="st3" cx="534.6" cy="471.7" rx="14.9" ry="9.5"/>
				
					<ellipse transform="matrix(0.9586 -0.2847 0.2847 0.9586 -101.0081 120.5026)" class="st8" cx="364" cy="407.7" rx="12" ry="17.7"/>
				
					<ellipse transform="matrix(0.9586 -0.2847 0.2847 0.9586 -111.4273 119.876)" class="st8" cx="356.6" cy="443.2" rx="9.8" ry="14"/>
				
					<ellipse transform="matrix(0.8969 -0.4423 0.4423 0.8969 -171.4655 203.8889)" class="st8" cx="351.5" cy="469.7" rx="7.5" ry="10.8"/>
			</g>
		</g>
	</g>
</g>
</svg>
